<svg xmlns="http://www.w3.org/2000/svg" viewBox="0 0 200 200" fill="none">
  <!-- Leaf/petal shape outline -->
  <path d="M100 10 C55 45, 30 90, 40 130 C50 165, 75 185, 100 190 C125 185, 150 165, 160 130 C170 90, 145 45, 100 10Z" stroke="#D4A017" stroke-width="5" fill="none"/>
  <!-- Dosa (half circle) -->
  <ellipse cx="100" cy="105" rx="45" ry="22" fill="#C8962E"/>
  <path d="M55 105 A45 22 0 0 1 145 105" fill="#D4A017"/>
  <!-- Dosa dots/texture -->
  <circle cx="75" cy="98" r="1.5" fill="#8B6914" opacity="0.6"/>
  <circle cx="85" cy="95" r="1" fill="#8B6914" opacity="0.5"/>
  <circle cx="95" cy="93" r="1.5" fill="#8B6914" opacity="0.6"/>
  <circle cx="108" cy="94" r="1" fill="#8B6914" opacity="0.5"/>
  <circle cx="118" cy="96" r="1.5" fill="#8B6914" opacity="0.6"/>
  <circle cx="128" cy="99" r="1" fill="#8B6914" opacity="0.5"/>
  <circle cx="90" cy="100" r="1" fill="#8B6914" opacity="0.4"/>
  <circle cx="110" cy="100" r="1" fill="#8B6914" opacity="0.4"/>
  <!-- Left chutney bowl (red/tomato) -->
  <circle cx="80" cy="135" r="14" fill="#6B8E3A" stroke="#4A6B2A" stroke-width="2"/>
  <circle cx="80" cy="135" r="10" fill="#8B2500"/>
  <path d="M76 132 C77 131 79 131 80 133" fill="#2E7D32" opacity="0.8"/>
  <!-- Right chutney bowl (white/coconut) -->
  <circle cx="120" cy="135" r="14" fill="#6B8E3A" stroke="#4A6B2A" stroke-width="2"/>
  <circle cx="120" cy="135" r="10" fill="#F5F5DC"/>
  <circle cx="117" cy="133" r="1" fill="#2C1810" opacity="0.6"/>
  <circle cx="122" cy="136" r="1" fill="#2C1810" opacity="0.6"/>
  <circle cx="119" cy="138" r="0.8" fill="#2C1810" opacity="0.5"/>
  <!-- Small V/chevron between bowls -->
  <path d="M97 130 L100 136 L103 130" stroke="#D4A017" stroke-width="2.5" fill="none" stroke-linecap="round" stroke-linejoin="round"/>
</svg>
